<svg width="3387" height="592" viewBox="0 0 3387 592" fill="none" xmlns="http://www.w3.org/2000/svg">
<path d="M796.698 426.657L398.346 591.656L0 426.657L274.596 312.914L350.017 344.154L398.345 460.827L446.671 344.153L522.094 312.913L796.698 426.657Z" fill="#072AC8"/>
<path d="M796.698 165.002L522.095 278.741L446.67 247.5L398.345 130.829L350.018 247.5L274.595 278.741L0 165.002L398.346 0L796.698 165.002Z" fill="#072AC8"/>
<path d="M3221.27 190.954C3316.11 190.954 3373.2 234.832 3373.2 315.511V411.288C3373.2 430.161 3376.5 445.73 3384.99 460.828H3309.97C3304.31 451.392 3300.54 439.597 3300.54 430.161V429.689C3280.72 451.392 3242.51 470.264 3192.49 470.264C3136.82 470.264 3064.63 448.089 3064.63 380.621C3064.63 313.152 3136.82 291.449 3192.49 291.449C3242.51 291.449 3280.72 309.85 3300.54 332.025V315.04C3300.54 266.915 3268.93 246.156 3206.65 246.156C3171.26 246.156 3142.95 250.874 3111.82 267.859L3090.11 219.734C3124.08 202.277 3175.04 190.954 3221.27 190.954ZM3301.95 383.923V377.318C3282.61 346.651 3243.92 339.102 3210.42 339.102C3180.23 339.102 3135.88 346.179 3135.88 380.621C3135.88 415.063 3180.23 422.612 3210.42 422.612C3243.92 422.612 3282.61 414.591 3301.95 383.923Z" fill="#010720"/>
<path d="M2904.03 191.426C2980.46 191.426 3015.38 242.853 3015.38 309.85V460.828H2942.72V313.624C2942.72 273.049 2922.43 249.458 2879.97 249.458C2842.7 249.458 2814.86 269.274 2796.93 304.188V409.401L2797.4 460.828H2724.27V313.624C2724.27 273.049 2703.99 249.458 2661.52 249.458C2624.25 249.458 2597.36 268.331 2578.96 302.772V460.828H2505.83V200.862H2578.96V247.099C2599.24 212.185 2637.93 191.426 2685.58 191.426C2741.73 191.426 2775.7 219.262 2789.38 260.781C2807.31 219.734 2849.3 191.426 2904.03 191.426Z" fill="#010720"/>
<path d="M2280.42 190.954C2375.26 190.954 2432.35 234.832 2432.35 315.511V411.288C2432.35 430.161 2435.65 445.73 2444.14 460.828H2369.12C2363.46 451.392 2359.69 439.597 2359.69 430.161V429.689C2339.87 451.392 2301.65 470.264 2251.64 470.264C2195.97 470.264 2123.78 448.089 2123.78 380.621C2123.78 313.152 2195.97 291.449 2251.64 291.449C2301.65 291.449 2339.87 309.85 2359.69 332.025V315.04C2359.69 266.915 2328.08 246.156 2265.8 246.156C2230.41 246.156 2202.1 250.874 2170.96 267.859L2149.26 219.734C2183.23 202.277 2234.19 190.954 2280.42 190.954ZM2361.1 383.923V377.318C2341.76 346.651 2303.07 339.102 2269.57 339.102C2239.38 339.102 2195.03 346.179 2195.03 380.621C2195.03 415.063 2239.38 422.612 2269.57 422.612C2303.07 422.612 2341.76 414.591 2361.1 383.923Z" fill="#010720"/>
<path d="M1956.83 191.426C2034.68 191.426 2074.79 240.966 2074.79 310.321V460.828H2001.65V315.039C2001.65 272.577 1979.01 249.458 1935.6 249.458C1896.91 249.458 1864.83 267.387 1843.6 304.659V460.828H1770.47V200.862H1843.6V246.627C1864.83 212.185 1906.82 191.426 1956.83 191.426Z" fill="#010720"/>
<path d="M1545.07 190.954C1639.9 190.954 1696.99 234.832 1696.99 315.511V411.288C1696.99 430.161 1700.29 445.73 1708.78 460.828H1633.77C1628.1 451.392 1624.33 439.597 1624.33 430.161V429.689C1604.51 451.392 1566.3 470.264 1516.29 470.264C1460.61 470.264 1388.43 448.089 1388.43 380.621C1388.43 313.152 1460.61 291.449 1516.29 291.449C1566.3 291.449 1604.51 309.85 1624.33 332.025V315.04C1624.33 266.915 1592.72 246.156 1530.44 246.156C1495.05 246.156 1466.75 250.874 1435.61 267.859L1413.9 219.734C1447.87 202.277 1498.83 190.954 1545.07 190.954ZM1625.75 383.923V377.318C1606.4 346.651 1567.71 339.102 1534.21 339.102C1504.02 339.102 1459.67 346.179 1459.67 380.621C1459.67 415.063 1504.02 422.612 1534.21 422.612C1567.71 422.612 1606.4 414.591 1625.75 383.923Z" fill="#010720"/>
<path d="M1221.18 130.562C1306.1 130.562 1362.72 170.194 1362.72 242.381C1362.72 315.511 1306.1 354.199 1221.18 354.199H1070.67V460.828H995.182V130.562H1221.18ZM1215.04 291.921C1257.51 291.921 1285.82 280.597 1285.82 242.853C1285.82 205.108 1257.51 193.785 1215.04 193.785H1070.67V291.921H1215.04Z" fill="#010720"/>
</svg>
